<svg xmlns="http://www.w3.org/2000/svg" width="105" height="105" viewBox="0 0 105 105" fill="none">
  <rect width="105" height="105" rx="16" fill="#ffffff"/>
  <path d="M64 10 H30 Q10 10 10 30 V72 Q10 92 30 92 H72 Q92 92 92 72 V46" stroke="#2b4ea3" stroke-width="9" stroke-linecap="round"/>
  <circle cx="86" cy="18" r="11" fill="#ce1126"/>
  <path d="M62 30 C 58 22, 46 17, 36 22 C 24 28, 18 42, 19 55 C 20 70, 30 82, 44 83 C 54 83.5, 61 78, 62 70 C 63 64, 61 60, 58 57" stroke="#ce1126" stroke-width="8.5" stroke-linecap="round" fill="none"/>
  <rect x="57" y="42" width="9" height="17" rx="4.5" fill="#ce1126"/>
  <path d="M63 47 C 72 49, 76 56, 76 64 V 99" stroke="#ce1126" stroke-width="8.5" stroke-linecap="round" fill="none"/>
</svg>
